<?xml version="1.0" standalone="no"?>
<!DOCTYPE svg PUBLIC "-//W3C//DTD SVG 20010904//EN"
 "http://www.w3.org/TR/2001/REC-SVG-20010904/DTD/svg10.dtd">
<svg version="1.0" xmlns="http://www.w3.org/2000/svg"
 width="500.000000pt" height="500.000000pt" viewBox="0 0 500.000000 500.000000"
 preserveAspectRatio="xMidYMid meet">
<metadata>
Created by potrace 1.14, written by Peter Selinger 2001-2017
</metadata>
<g transform="translate(0.000000,500.000000) scale(0.100000,-0.100000)"
fill="#000000" stroke="none">
<path d="M2389 4718 c-57 -101 -109 -192 -116 -203 -7 -11 -15 -26 -19 -34 -8
-16 -24 -43 -271 -476 -88 -154 -168 -293 -177 -310 -9 -16 -26 -46 -37 -65
-12 -19 -114 -197 -227 -395 -112 -198 -213 -373 -223 -390 -10 -16 -26 -46
-37 -65 -11 -19 -144 -253 -297 -520 -153 -267 -286 -501 -297 -520 -10 -19
-28 -51 -39 -70 -12 -19 -132 -228 -267 -465 -135 -236 -256 -447 -269 -467
-13 -21 -22 -39 -21 -39 12 -6 4801 -2 4804 3 3 4 -31 69 -74 145 -44 76 -90
158 -104 183 -14 25 -39 69 -57 98 -17 29 -31 55 -31 57 0 2 -26 47 -58 102
-32 54 -72 123 -89 153 -17 30 -170 300 -342 598 -171 299 -311 548 -311 553
0 5 -4 9 -10 9 -5 0 -10 4 -10 9 0 6 -103 191 -230 411 -126 221 -230 406
-230 411 0 5 -4 9 -9 9 -5 0 -11 6 -13 14 -5 21 -821 1446 -829 1446 -3 0 -53
-82 -110 -182z"/>
</g>
</svg>
